<svg width="16" height="16" viewBox="0 0 16 16" fill="none" xmlns="http://www.w3.org/2000/svg">
<g id="google logo" clip-path="url(#clip0_4705_825)">
<path id="Vector" d="M15.6263 8.14945C15.6263 7.49394 15.5731 7.01559 15.458 6.51953H7.97266V9.47819H12.3664C12.2778 10.2135 11.7995 11.3208 10.7364 12.0648L10.7215 12.1639L13.0883 13.9973L13.2522 14.0137C14.7581 12.6229 15.6263 10.5766 15.6263 8.14945Z" fill="#4285F4"/>
<path id="Vector_2" d="M7.9737 15.9465C10.1262 15.9465 11.9333 15.2378 13.2533 14.0154L10.7375 12.0665C10.0643 12.536 9.16069 12.8638 7.9737 12.8638C5.86543 12.8638 4.07605 11.473 3.43819 9.55078L3.34469 9.55872L0.883746 11.4633L0.851562 11.5527C2.16259 14.1571 4.85553 15.9465 7.9737 15.9465Z" fill="#34A853"/>
<path id="Vector_3" d="M3.43701 9.54985C3.2687 9.05379 3.1713 8.52225 3.1713 7.97306C3.1713 7.4238 3.2687 6.89232 3.42815 6.39626L3.42369 6.29061L0.931908 4.35547L0.850382 4.39425C0.310046 5.47498 0 6.6886 0 7.97306C0 9.25751 0.310046 10.4711 0.850382 11.5518L3.43701 9.54985Z" fill="#FBBC05"/>
<path id="Vector_4" d="M7.9737 3.08269C9.47074 3.08269 10.4806 3.72934 11.0564 4.26974L13.3064 2.07285C11.9245 0.788397 10.1262 0 7.9737 0C4.85553 0 2.16259 1.78937 0.851562 4.39371L3.42933 6.39573C4.07605 4.47347 5.86543 3.08269 7.9737 3.08269Z" fill="#EB4335"/>
</g>
<defs>
<clipPath id="clip0_4705_825">
<rect width="16" height="16" fill="white"/>
</clipPath>
</defs>
</svg>
