<svg width="17" height="20" viewBox="0 0 17 20" fill="none" xmlns="http://www.w3.org/2000/svg">
<path id="Vector" d="M16.1647 15.3054C15.8774 15.9691 15.5374 16.5799 15.1434 17.1416C14.6064 17.9072 14.1667 18.4372 13.8279 18.7315C13.3026 19.2146 12.7398 19.462 12.1371 19.476C11.7045 19.476 11.1827 19.3529 10.5753 19.1032C9.96598 18.8546 9.406 18.7315 8.89396 18.7315C8.35696 18.7315 7.78102 18.8546 7.16499 19.1032C6.54801 19.3529 6.05099 19.4831 5.67098 19.496C5.09305 19.5206 4.517 19.2662 3.94201 18.7315C3.57501 18.4114 3.11598 17.8627 2.56607 17.0853C1.97607 16.2552 1.491 15.2925 1.11099 14.1951C0.704016 13.0097 0.5 11.8618 0.5 10.7505C0.5 9.4775 0.77507 8.37956 1.32603 7.4595C1.75904 6.72047 2.33509 6.1375 3.05606 5.70954C3.77703 5.28157 4.55605 5.06349 5.39497 5.04953C5.85401 5.04953 6.45597 5.19152 7.20403 5.47058C7.94998 5.75058 8.42895 5.89257 8.63894 5.89257C8.79594 5.89257 9.32802 5.72654 10.23 5.39554C11.083 5.08858 11.8029 4.96148 12.3927 5.01155C13.9908 5.14052 15.1915 5.77051 15.99 6.90549C14.5607 7.7715 13.8537 8.98446 13.8677 10.5405C13.8806 11.7525 14.3203 12.7611 15.1845 13.5619C15.5761 13.9336 16.0134 14.2209 16.5 14.4249C16.3945 14.7309 16.2831 15.024 16.1647 15.3054ZM12.4994 0.882453C12.4994 1.83243 12.1524 2.71942 11.4606 3.5404C10.6258 4.5164 9.61599 5.08037 8.52099 4.99138C8.50704 4.87741 8.49895 4.75746 8.49895 4.63142C8.49895 3.71944 8.89596 2.74345 9.60098 1.94545C9.95297 1.5414 10.4006 1.20544 10.9435 0.937443C11.4852 0.673441 11.9976 0.527443 12.4795 0.502441C12.4936 0.629438 12.4994 0.756455 12.4994 0.882453Z" fill="white" fill-opacity="0.92"/>
</svg>
